<svg preserveAspectRatio="none" width="100%" height="100%" overflow="visible" style="display: block;" viewBox="0 0 21.999 24.0115" fill="none" xmlns="http://www.w3.org/2000/svg">
<g id="Group 2">
<path id="Vector" d="M7.2998 12.4523L9.96647 15.4523L15.2998 8.85232" stroke="var(--stroke-0, white)" stroke-opacity="0.9" stroke-width="1.66667" stroke-linecap="round" stroke-linejoin="round"/>
<path id="Union" d="M9.76562 0.348421C9.72483 0.0946537 10.0012 -0.0896024 10.2197 0.0456863L13.416 2.0242C13.5712 2.12045 13.6046 2.3315 13.4873 2.47147L11.0723 5.35233C10.9072 5.54925 10.5878 5.46143 10.5469 5.2078L10.3584 4.03592C5.68716 4.36474 1.99923 8.2567 1.99902 13.0115C1.99912 17.9819 6.0287 22.0113 10.999 22.0115C15.9695 22.0115 19.9989 17.982 19.999 13.0115C19.9992 12.4594 20.4478 12.0115 21 12.0115C21.5519 12.0118 21.9988 12.4596 21.999 13.0115C21.9989 19.0866 17.0741 24.0115 10.999 24.0115C4.92413 24.0113 9.77334e-05 19.0864 0 13.0115C0.000199686 7.25985 4.4144 2.54156 10.04 2.05545L9.76562 0.348421Z" fill="var(--fill-0, white)" fill-opacity="0.9"/>
</g>
</svg>
