<svg preserveAspectRatio="none" width="100%" height="100%" overflow="visible" style="display: block;" viewBox="0 0 24 24" fill="none" xmlns="http://www.w3.org/2000/svg">
<g id="Group">
<g id="Vector">
</g>
<path id="Vector_2" d="M12.7408 6.28995C12.5443 6.10428 12.278 6 12.0003 6C11.7227 6 11.4564 6.10428 11.2599 6.28995L7.30699 10.0283C7.11043 10.2143 7 10.4665 7 10.7295C7 10.9926 7.11043 11.2448 7.30699 11.4308C7.50355 11.6168 7.77014 11.7213 8.04812 11.7213C8.3261 11.7213 8.59269 11.6168 8.78925 11.4308L10.9526 9.38451V17.0086C10.9526 17.2715 11.063 17.5237 11.2595 17.7096C11.456 17.8955 11.7225 18 12.0003 18C12.2782 18 12.5447 17.8955 12.7412 17.7096C12.9377 17.5237 13.0481 17.2715 13.0481 17.0086V9.38451L15.2108 11.4308C15.3081 11.5229 15.4236 11.596 15.5508 11.6458C15.6779 11.6956 15.8142 11.7213 15.9519 11.7213C16.0895 11.7213 16.2258 11.6956 16.353 11.6458C16.4801 11.596 16.5957 11.5229 16.693 11.4308C16.7903 11.3387 16.8675 11.2294 16.9202 11.1091C16.9729 10.9887 17 10.8598 17 10.7295C17 10.5993 16.9729 10.4703 16.9202 10.35C16.8675 10.2297 16.7903 10.1204 16.693 10.0283L12.7408 6.28995Z" fill="var(--fill-0, black)"/>
</g>
</svg>
