<svg preserveAspectRatio="none" width="100%" height="100%" overflow="visible" style="display: block;" viewBox="0 0 21.6672 21.6672" fill="none" xmlns="http://www.w3.org/2000/svg">
<g id="Group 3">
<path id="Vector" d="M8.76881 14.3336C8.67953 13.9875 8.49915 13.6717 8.24643 13.419C7.9937 13.1662 7.67788 12.9859 7.33181 12.8966L1.19681 11.3146C1.09214 11.2849 1.00002 11.2218 0.934421 11.135C0.868824 11.0482 0.833333 10.9424 0.833333 10.8336C0.833333 10.7248 0.868824 10.6189 0.934421 10.5321C1.00002 10.4453 1.09214 10.3823 1.19681 10.3526L7.33181 8.76958C7.67776 8.68039 7.9935 8.50016 8.24621 8.24762C8.49892 7.99509 8.67937 7.67947 8.76881 7.33358L10.3508 1.19858C10.3802 1.0935 10.4432 1.00092 10.5301 0.934977C10.6171 0.86903 10.7232 0.833333 10.8323 0.833333C10.9414 0.833333 11.0475 0.86903 11.1345 0.934977C11.2214 1.00092 11.2844 1.0935 11.3138 1.19858L12.8948 7.33358C12.9841 7.67965 13.1645 7.99548 13.4172 8.2482C13.6699 8.50092 13.9857 8.6813 14.3318 8.77058L20.4668 10.3516C20.5723 10.3807 20.6653 10.4436 20.7316 10.5307C20.7979 10.6177 20.8339 10.7241 20.8339 10.8336C20.8339 10.943 20.7979 11.0494 20.7316 11.1365C20.6653 11.2236 20.5723 11.2865 20.4668 11.3156L14.3318 12.8966C13.9857 12.9859 13.6699 13.1662 13.4172 13.419C13.1645 13.6717 12.9841 13.9875 12.8948 14.3336L11.3128 20.4686C11.2834 20.5737 11.2204 20.6662 11.1335 20.7322C11.0466 20.7981 10.9404 20.8338 10.8313 20.8338C10.7222 20.8338 10.6161 20.7981 10.5291 20.7322C10.4422 20.6662 10.3792 20.5737 10.3498 20.4686L8.76881 14.3336Z" stroke="var(--stroke-0, white)" stroke-opacity="0.9" stroke-width="1.66667" stroke-linecap="round" stroke-linejoin="round"/>
<g id="Vector_2">
<path d="M18.831 1.83353V5.83353Z" fill="var(--fill-0, white)" fill-opacity="0.9"/>
<path d="M18.831 1.83353V5.83353" stroke="var(--stroke-0, white)" stroke-opacity="0.9" stroke-width="1.66667" stroke-linecap="round" stroke-linejoin="round"/>
</g>
<g id="Vector_3">
<path d="M20.8318 3.83348H16.8318Z" fill="var(--fill-0, white)" fill-opacity="0.9"/>
<path d="M20.8318 3.83348H16.8318" stroke="var(--stroke-0, white)" stroke-opacity="0.9" stroke-width="1.66667" stroke-linecap="round" stroke-linejoin="round"/>
</g>
<g id="Vector_4">
<path d="M2.83255 15.8335V17.8335Z" fill="var(--fill-0, white)" fill-opacity="0.9"/>
<path d="M2.83255 15.8335V17.8335" stroke="var(--stroke-0, white)" stroke-opacity="0.9" stroke-width="1.66667" stroke-linecap="round" stroke-linejoin="round"/>
</g>
<g id="Vector_5">
<path d="M3.83177 16.8335H1.83177Z" fill="var(--fill-0, white)" fill-opacity="0.9"/>
<path d="M3.83177 16.8335H1.83177" stroke="var(--stroke-0, white)" stroke-opacity="0.9" stroke-width="1.66667" stroke-linecap="round" stroke-linejoin="round"/>
</g>
</g>
</svg>
